<svg t="1767950083543" 
     class="icon" 
     viewBox="0 0 1024 1024" 
     version="1.1" 
     xmlns="http://www.w3.org/2000/svg" 
     p-id="7646" 
     width="200" 
     height="200">
    
    <!-- 锁体外框 -->
    <path d="M895.1 898H127.8V353.2h767.3V898z m-717.3-50h667.3V403.2H177.8V848z" 
          fill="#a8c5da" 
          p-id="7647">
    </path>
    
    <!-- 锁扣 -->
    <path d="M720 403.2H306V283.5C306 181.8 388.8 99 490.5 99h45C637.2 99 720 181.8 720 283.5v119.7z m-364-50h314v-69.7c0-74.2-60.3-134.5-134.5-134.5h-45C416.3 149 356 209.3 356 283.5v69.7z" 
          fill="#a8c5da" 
          p-id="7648">
    </path>
    
    <!-- 锁孔圆形 -->
    <path d="M511.8 653.9m-75.9 0a75.9 75.9 0 1 0 151.8 0 75.9 75.9 0 1 0-151.8 0Z" 
          fill="#a8c5da" 
          p-id="7649">
    </path>
    
    <!-- 锁孔竖线 -->
    <path d="M511.8 678.9c-13.8 0-25-11.2-25-25V528c0-13.8 11.2-25 25-25s25 11.2 25 25v125.8c0 13.9-11.2 25.1-25 25.1z" 
          fill="#a8c5da" 
          p-id="7650">
    </path>
    
</svg>