<svg t="1767950137674" 
     class="icon" 
     viewBox="0 0 1024 1024" 
     version="1.1" 
     xmlns="http://www.w3.org/2000/svg" 
     p-id="8661" 
     width="200" 
     height="200">
    
    <!-- 设置图标的各个元素 -->
    <path d="M740.72 920.79c-13.45 0-24.35-10.91-24.35-24.35v-44.81c0-13.45 10.9-24.35 24.35-24.35 13.45 0 24.35 10.91 24.35 24.35v44.81c0 13.44-10.9 24.35-24.35 24.35z m0-293.54c-13.45 0-24.35-10.91-24.35-24.35v-29.68c0-13.45 10.9-24.35 24.35-24.35 13.45 0 24.35 10.91 24.35 24.35v29.68c0 13.44-10.9 24.35-24.35 24.35z m-125.6 131.93H579.1c-13.45 0-24.35-10.91-24.35-24.35 0-13.45 10.9-24.35 24.35-24.35h36.01c13.45 0 24.35 10.91 24.35 24.35 0.01 13.44-10.89 24.35-24.34 24.35z m287.88 0h-43.32c-13.45 0-24.35-10.91-24.35-24.35 0-13.45 10.9-24.35 24.35-24.35H903c13.45 0 24.35 10.91 24.35 24.35 0.01 13.44-10.9 24.35-24.35 24.35z m-48.01 114.28c-6.24 0-12.47-2.38-17.23-7.13l-26.95-26.97c-9.51-9.51-9.51-24.92 0-34.44 9.51-9.51 24.92-9.51 34.44 0l26.97 26.97c9.51 9.51 9.51 24.94-0.02 34.45a24.3 24.3 0 0 1-17.21 7.12zM656.52 674.97c-6.23 0-12.45-2.38-17.21-7.12l-30.09-30.08c-9.51-9.51-9.51-24.92 0-34.44 9.51-9.51 24.92-9.51 34.44 0l30.07 30.05c9.52 9.51 9.52 24.94 0.02 34.45a24.282 24.282 0 0 1-17.23 7.14z m-30.08 198.49c-6.23 0-12.46-2.38-17.22-7.13-9.51-9.51-9.51-24.92 0-34.44l33.49-33.5c9.51-9.51 24.93-9.51 34.45 0 9.51 9.5 9.51 24.92 0.01 34.44l-33.5 33.5c-4.77 4.75-11 7.13-17.23 7.13z m195.68-195.68a24.3 24.3 0 0 1-17.21-7.12c-9.52-9.51-9.52-24.94-0.02-34.45l32.88-32.88c9.52-9.5 24.94-9.5 34.45 0.03 9.51 9.51 9.49 24.92-0.02 34.44l-32.85 32.85a24.313 24.313 0 0 1-17.23 7.13z" 
          fill="#a8c5da" 
          p-id="8662">
    </path>
    
    <!-- 齿轮外圈 -->
    <path d="M740.72 871.46c-75.34 0-136.63-61.3-136.63-136.64 0-75.33 61.3-136.62 136.63-136.62s136.63 61.3 136.63 136.62c0 75.35-61.3 136.64-136.63 136.64z m0-224.55c-48.49 0-87.92 39.43-87.92 87.92s39.44 87.93 87.92 87.93c48.48 0 87.92-39.45 87.92-87.93 0-48.49-39.44-87.92-87.92-87.92z" 
          fill="#a8c5da" 
          p-id="8663">
    </path>
    
    <!-- 齿轮内圈 -->
    <path d="M740.72 871.46c-75.34 0-136.63-61.3-136.63-136.64 0-75.33 61.3-136.62 136.63-136.62s136.63 61.3 136.63 136.62c0 75.35-61.3 136.64-136.63 136.64z m0-224.55c-48.49 0-87.92 39.43-87.92 87.92s39.44 87.93 87.92 87.93c48.48 0 87.92-39.45 87.92-87.93 0-48.49-39.44-87.92-87.92-87.92z" 
          fill="#a8c5da" 
          p-id="8664">
    </path>
    
    <!-- 立体图形主体 -->
    <path d="M449.95 852.75c-8.47 0-16.95-1.89-24.85-5.69L130.49 705.32c-19.74-9.5-32.49-29.8-32.49-51.68V316.83c0-21.88 12.75-42.17 32.48-51.67L425.1 123.42c15.81-7.61 33.92-7.59 49.71-0.02l294.62 141.76c19.74 9.5 32.49 29.79 32.49 51.67v183.65c0 13.45-10.9 24.35-24.35 24.35-13.45 0-24.35-10.91-24.35-24.35V316.83c0-3.3-1.93-6.36-4.91-7.78L453.71 167.3a8.651 8.651 0 0 0-7.5 0l-294.6 141.74c-2.97 1.43-4.9 4.49-4.9 7.78v336.81c0 3.3 1.93 6.36 4.91 7.78l294.6 141.74c2.39 1.16 5.12 1.14 7.51-0.02l52.2-25.11c12.13-5.8 26.68-0.75 32.5 11.38 5.83 12.13 0.73 26.68-11.38 32.5l-52.21 25.13a56.93 56.93 0 0 1-24.89 5.72z" 
          fill="#a8c5da" 
          p-id="8665">
    </path>
    
    <!-- 立体图形左侧线 -->
    <path d="M449.93 509.58c-4.13 0-8.32-1.05-12.15-3.27L115.37 320.18c-11.65-6.72-15.64-21.61-8.91-33.26 6.71-11.64 21.63-15.65 33.26-8.91l322.41 186.14c11.65 6.72 15.64 21.61 8.91 33.26-4.5 7.81-12.69 12.17-21.11 12.17z" 
          fill="#a8c5da" 
          p-id="8666">
    </path>
    
    <!-- 立体图形右侧线 -->
    <path d="M449.98 509.58c-8.42 0-16.6-4.36-21.11-12.18-6.73-11.65-2.74-26.54 8.91-33.26L760.19 278c11.67-6.74 26.56-2.73 33.26 8.91 6.73 11.65 2.73 26.54-8.91 33.26L462.13 506.32a24.15 24.15 0 0 1-12.15 3.26z" 
          fill="#a8c5da" 
          p-id="8667">
    </path>
    
    <!-- 立体图形中央竖线 -->
    <path d="M449.96 852.72c-13.45 0-24.35-10.91-24.35-24.35V485.23c0-13.45 10.9-24.35 24.35-24.35 13.45 0 24.35 10.91 24.35 24.35v343.14c0 13.44-10.9 24.35-24.35 24.35z" 
          fill="#a8c5da" 
          p-id="8668">
    </path>
    
</svg>